<svg height="20" viewBox="0 0 26 20" width="26" xmlns="http://www.w3.org/2000/svg"><g fill="#6b4dc4" transform="translate(1 1)"><path d="m2 0h19c1.0528636 0 1.9180289.81730785 1.994505 1.85093266l.005495.14906734v4.092c.5353846.192.9344379.67455621.9926627 1.25968867l.0073373.14831133v3c0 .6009231-.3578698 1.115787-.8691124 1.3542522l-.1308876.0537478v4.092c0 1.0528636-.8173079 1.9180289-1.8509327 1.994505l-.1490673.005495h-19c-1.05286364 0-1.91802893-.8173079-1.99450498-1.8509327l-.00549502-.1490673v-14c0-1.05286364.81730785-1.91802893 1.85093266-1.99450498l.14906734-.00549502h19zm20.5 7h-3.5c-1.103 0-2 .897-2 2s.897 2 2 2h3.5c.2761424 0 .5-.2238576.5-.5v-3c0-.27614237-.2238576-.5-.5-.5z" stroke="#6b4dc4"/><path d="m18.947 8.21c-.5026018.02829221-.8956638.44410254-.8956638.9475s.393062.9192078.8956638.9475c.4991576-.032458.8874208-.44678821.8874208-.947s-.3882632-.91454199-.8874208-.947z"/></g></svg>