<svg xmlns="http://www.w3.org/2000/svg" width="26" height="20" viewBox="0 0 26 20">
    <g fill="#000" fill-rule="nonzero">
        <path stroke="#000" d="M24 7.092V3c0-1.103-.897-2-2-2H3c-1.103 0-2 .897-2 2v14c0 1.103.897 2 2 2h19c1.103 0 2-.897 2-2v-4.092c.58-.207 1-.757 1-1.408v-3c0-.651-.42-1.2-1-1.408zM23 17c0 .551-.449 1-1 1H3c-.551 0-1-.449-1-1V3c0-.551.449-1 1-1h19c.551 0 1 .449 1 1v4h-3c-1.654 0-3 1.346-3 3s1.346 3 3 3h3v4zm1-5.5a.5.5 0 0 1-.5.5H20c-1.103 0-2-.897-2-2s.897-2 2-2h3.5a.5.5 0 0 1 .5.5v3z"/>
        <path d="M19.947 9.21a.949.949 0 0 0 0 1.895.949.949 0 0 0 0-1.894z"/>
    </g>
</svg>
