<?xml version="1.0" encoding="UTF-8" ?>
<!DOCTYPE svg PUBLIC "-//W3C//DTD SVG 1.1//EN" "http://www.w3.org/Graphics/SVG/1.1/DTD/svg11.dtd">
<svg width="1483pt" height="350pt" viewBox="0 0 1483 350" version="1.1" xmlns="http://www.w3.org/2000/svg">
<g id="#b5b5b5b5">
<path fill="#b5b5b5" opacity="0.71" d=" M 0.00 0.00 L 378.99 0.00 L 379.05 0.99 C 253.02 1.04 127.00 0.94 0.98 1.04 L 0.00 1.05 L 0.00 0.00 Z" />
</g>
<g id="#ffffffff">
</g>
<g id="#cfcfcfd0">
<path fill="#cfcfcf" opacity="0.82" d=" M 0.00 1.05 L 0.98 1.04 C 1.09 117.03 0.95 233.03 1.05 349.02 C 113.02 349.06 225.00 349.04 336.97 349.04 C 350.69 349.23 364.45 348.69 378.14 349.28 C 378.43 349.46 378.99 349.82 379.28 350.00 L 0.00 350.00 L 0.00 1.05 Z" />
</g>
<g id="#000f30ff">
<path fill="#000f30" opacity="1.00" d=" M 75.59 50.64 C 103.52 26.64 139.25 12.06 175.91 9.14 C 204.72 6.77 234.15 11.67 260.49 23.64 C 289.33 36.65 314.15 58.03 332.10 84.01 C 353.22 115.15 363.53 153.41 361.12 190.95 C 359.69 215.39 352.71 239.39 341.44 261.08 C 338.01 267.10 334.68 273.94 328.23 277.23 C 329.31 264.30 333.92 251.99 335.52 239.14 C 338.91 209.19 334.04 178.24 320.94 151.05 C 307.73 123.37 285.88 99.81 258.93 85.09 C 235.28 72.00 208.04 66.00 181.09 66.53 C 183.41 74.05 185.83 81.53 188.20 89.04 C 179.98 94.16 170.47 97.60 163.61 104.63 C 157.49 112.21 153.76 121.36 148.96 129.78 C 140.02 127.39 131.60 123.48 123.14 119.80 C 107.46 112.88 92.06 105.29 76.13 98.91 C 71.78 97.25 67.37 95.48 62.66 95.25 C 66.54 100.40 72.28 103.69 77.17 107.78 C 91.19 119.38 104.51 131.79 118.04 143.97 C 123.82 149.90 129.70 155.82 136.60 160.47 C 128.80 177.11 121.34 193.92 113.54 210.57 C 108.61 220.69 102.93 231.38 103.94 243.00 C 105.78 259.44 122.88 271.96 139.12 269.53 C 147.27 268.99 153.69 263.66 159.97 259.03 C 175.54 249.29 190.72 238.87 207.14 230.58 C 210.31 231.82 212.41 234.66 212.55 238.09 C 214.37 258.48 206.89 278.81 195.24 295.30 C 185.26 308.15 172.29 319.40 156.57 324.43 C 145.12 328.17 132.88 328.83 120.93 328.00 C 99.53 324.86 80.13 313.21 64.86 298.22 C 42.13 275.76 27.29 246.00 20.71 214.89 C 13.91 183.08 16.80 149.45 27.99 118.98 C 37.68 92.63 54.25 68.87 75.59 50.64 Z" />
<path fill="#000f30" opacity="1.00" d=" M 1221.95 136.81 C 1239.23 121.66 1265.65 119.07 1286.21 128.74 C 1291.05 131.18 1295.79 134.19 1299.18 138.50 C 1293.50 143.80 1288.28 149.58 1282.58 154.84 C 1282.32 154.74 1281.81 154.55 1281.55 154.45 C 1270.72 142.22 1249.22 143.54 1239.15 156.09 C 1229.76 167.89 1229.68 186.14 1238.72 198.16 C 1248.97 211.68 1272.63 212.17 1282.57 198.05 C 1288.67 203.25 1294.24 209.03 1300.21 214.37 C 1287.12 230.29 1264.19 234.59 1244.88 229.78 C 1229.26 226.02 1215.34 214.87 1209.18 199.90 C 1200.33 178.98 1204.41 152.07 1221.95 136.81 Z" />
<path fill="#000f30" opacity="1.00" d=" M 583.22 125.86 C 591.68 125.94 600.15 125.62 608.60 126.05 C 608.48 160.31 608.48 194.58 608.60 228.85 C 600.14 228.97 591.67 228.88 583.21 228.90 C 583.24 194.56 583.22 160.21 583.22 125.86 Z" />
<path fill="#000f30" opacity="1.00" d=" M 629.31 125.99 C 638.82 125.67 648.35 125.92 657.88 125.86 C 671.67 147.95 684.95 170.39 699.00 192.32 C 699.19 170.16 698.73 148.00 698.57 125.84 C 706.74 125.87 714.90 125.83 723.07 125.86 C 723.08 160.20 723.06 194.55 723.07 228.89 C 713.55 228.84 704.02 229.07 694.50 228.77 C 680.88 206.37 667.18 184.01 653.25 161.80 C 653.56 184.16 653.40 206.53 653.85 228.89 C 645.67 228.90 637.49 228.94 629.31 228.87 C 629.40 194.58 629.41 160.28 629.31 125.99 Z" />
<path fill="#000f30" opacity="1.00" d=" M 743.85 125.85 C 766.50 125.85 789.15 125.83 811.81 125.86 C 811.81 133.04 811.76 140.22 811.84 147.40 C 797.46 147.59 783.07 147.28 768.69 147.56 C 768.77 154.40 768.71 161.25 768.74 168.09 C 781.97 168.08 795.19 168.15 808.42 168.05 C 808.56 175.04 808.48 182.03 808.47 189.02 C 795.23 188.95 782.00 188.99 768.76 189.01 C 768.71 202.30 768.72 215.60 768.76 228.89 C 760.45 228.92 752.14 228.90 743.83 228.90 C 743.86 194.55 743.83 160.20 743.85 125.85 Z" />
<path fill="#000f30" opacity="1.00" d=" M 827.30 125.95 C 835.74 125.81 844.21 125.73 852.66 125.99 C 852.57 152.95 852.56 179.92 852.66 206.88 C 865.91 206.84 879.15 206.88 892.40 206.86 C 892.40 214.22 892.45 221.57 892.37 228.93 C 870.68 228.86 848.99 228.95 827.30 228.88 C 827.36 194.57 827.36 160.26 827.30 125.95 Z" />
<path fill="#000f30" opacity="1.00" d=" M 899.01 125.83 C 907.36 125.87 915.72 125.83 924.08 125.85 C 924.10 146.58 924.07 167.31 924.10 188.03 C 924.04 195.39 926.89 203.76 934.03 207.02 C 940.97 210.03 949.81 209.60 955.84 204.78 C 960.66 200.70 962.20 194.06 962.21 188.00 C 962.24 167.29 962.22 146.57 962.22 125.86 C 970.64 125.83 979.06 125.86 987.48 125.84 C 987.50 147.22 987.48 168.61 987.48 189.99 C 987.46 199.95 984.35 210.14 977.59 217.62 C 969.11 227.47 955.70 231.77 943.00 231.57 C 931.89 231.72 920.38 228.51 911.97 221.00 C 903.11 213.40 899.01 201.51 899.00 190.06 C 899.00 168.65 898.99 147.24 899.01 125.83 Z" />
<path fill="#000f30" opacity="1.00" d=" M 1007.02 125.85 C 1030.16 125.83 1053.31 125.87 1076.46 125.83 C 1076.49 132.98 1076.49 140.13 1076.45 147.28 C 1061.43 147.26 1046.41 147.25 1031.40 147.29 C 1031.39 153.50 1031.46 159.71 1031.34 165.93 C 1045.55 166.24 1059.77 165.98 1073.99 166.06 C 1074.01 172.85 1073.99 179.64 1074.00 186.43 C 1059.80 186.46 1045.60 186.43 1031.41 186.44 C 1031.47 193.41 1031.24 200.39 1031.54 207.35 C 1047.34 207.18 1063.14 207.38 1078.93 207.25 C 1079.10 214.47 1079.06 221.70 1078.97 228.92 C 1054.99 228.89 1031.00 228.91 1007.02 228.91 C 1007.00 194.56 1007.01 160.21 1007.02 125.85 Z" />
<path fill="#000f30" opacity="1.00" d=" M 1095.02 125.85 C 1104.44 125.78 1113.86 125.98 1123.28 125.74 C 1137.48 147.81 1150.65 170.55 1164.81 192.64 C 1164.55 170.41 1164.60 148.17 1164.24 125.94 C 1172.42 125.78 1180.61 125.79 1188.79 125.94 C 1188.73 160.25 1188.75 194.57 1188.78 228.89 C 1179.27 228.87 1169.75 229.01 1160.25 228.81 C 1146.71 206.43 1132.72 184.33 1119.26 161.90 C 1118.54 184.23 1119.61 206.59 1119.47 228.93 C 1111.32 228.88 1103.17 228.91 1095.02 228.91 C 1095.01 194.55 1095.03 160.20 1095.02 125.85 Z" />
<path fill="#000f30" opacity="1.00" d=" M 1310.35 126.03 C 1333.49 125.63 1356.65 125.93 1379.80 125.87 C 1379.79 132.99 1379.76 140.10 1379.81 147.22 C 1364.74 147.43 1349.66 147.03 1334.60 147.42 C 1334.74 153.63 1334.63 159.85 1334.68 166.06 C 1348.90 166.07 1363.11 166.06 1377.34 166.06 C 1377.34 172.85 1377.33 179.64 1377.34 186.43 C 1363.10 186.53 1348.86 186.29 1334.63 186.55 C 1334.72 193.46 1334.64 200.36 1334.68 207.26 C 1350.62 207.41 1366.57 207.11 1382.52 207.41 C 1382.33 214.58 1382.50 221.75 1382.41 228.92 C 1358.39 228.86 1334.37 228.97 1310.36 228.86 C 1310.45 194.58 1310.47 160.30 1310.35 126.03 Z" />
<path fill="#000f30" opacity="1.00" d=" M 1398.34 125.94 C 1407.54 125.75 1416.75 125.89 1425.96 125.85 C 1435.96 125.92 1446.25 125.16 1455.90 128.42 C 1464.24 130.93 1471.99 136.73 1475.09 145.09 C 1478.61 154.66 1477.90 166.30 1471.48 174.52 C 1467.64 179.59 1461.97 182.88 1456.03 184.87 C 1461.47 194.08 1467.16 203.15 1472.70 212.31 C 1476.17 217.66 1479.04 223.44 1483.00 228.46 L 1483.00 228.88 C 1473.10 228.88 1463.20 228.99 1453.31 228.84 C 1445.98 215.20 1438.58 201.59 1431.09 188.04 C 1428.41 188.08 1425.75 188.12 1423.10 188.16 C 1423.08 201.74 1423.09 215.31 1423.10 228.89 C 1414.84 228.91 1406.59 228.93 1398.35 228.88 C 1398.41 194.57 1398.42 160.25 1398.34 125.94 M 1423.09 146.19 C 1422.92 154.05 1422.97 161.90 1423.06 169.76 C 1431.04 169.33 1439.67 171.03 1447.03 167.11 C 1454.03 163.53 1454.13 151.44 1446.73 148.25 C 1439.30 144.99 1430.95 146.70 1423.09 146.19 Z" />
<path fill="#000f30" opacity="1.00" d=" M 172.42 167.03 C 174.47 159.14 184.40 154.79 191.63 158.48 C 194.50 159.78 196.31 162.47 197.75 165.16 C 191.58 168.09 185.29 170.80 179.42 174.29 C 177.60 175.37 175.65 176.19 173.68 176.92 C 171.10 174.31 171.74 170.28 172.42 167.03 Z" />
</g>
<g id="#6d84c1ff">
<path fill="#6d84c1" opacity="1.00" d=" M 413.54 120.73 C 420.87 118.38 429.80 123.26 431.10 130.99 C 432.87 138.82 425.92 146.81 418.01 146.62 C 411.60 147.08 405.16 142.37 403.93 136.02 C 402.41 129.43 407.13 122.43 413.54 120.73 Z" />
<path fill="#6d84c1" opacity="1.00" d=" M 471.38 166.03 C 476.22 158.45 484.98 153.68 494.01 154.25 C 502.53 154.09 510.75 158.73 514.95 166.16 C 518.78 160.69 524.37 156.29 531.02 154.96 C 539.62 153.14 549.60 154.52 555.96 161.06 C 562.82 167.72 564.71 177.82 564.44 187.04 C 564.41 200.99 564.44 214.95 564.42 228.91 C 556.33 228.89 548.24 228.92 540.15 228.90 C 540.15 215.27 540.19 201.64 540.13 188.01 C 540.02 183.77 539.54 178.82 536.04 175.92 C 531.55 172.84 524.64 173.99 521.47 178.46 C 519.05 181.76 518.29 185.96 518.32 189.98 C 518.31 202.95 518.33 215.93 518.31 228.91 C 510.22 228.90 502.14 228.90 494.06 228.91 C 494.04 214.96 494.07 201.02 494.05 187.07 C 494.09 182.90 493.11 178.15 489.48 175.61 C 484.78 172.80 477.84 174.31 475.01 179.10 C 472.98 182.34 472.32 186.24 472.38 190.01 C 472.39 202.98 472.41 215.95 472.38 228.92 C 464.26 228.89 456.14 228.91 448.02 228.91 C 448.02 204.69 448.00 180.47 448.03 156.24 C 455.87 156.32 463.71 156.14 471.55 156.35 C 471.49 159.57 471.50 162.80 471.38 166.03 Z" />
<path fill="#6d84c1" opacity="1.00" d=" M 405.43 156.26 C 413.47 156.25 421.52 156.26 429.56 156.26 C 429.54 180.46 429.49 204.67 429.59 228.88 C 421.53 228.93 413.47 228.91 405.42 228.89 C 405.50 204.68 405.47 180.47 405.43 156.26 Z" />
</g>
<g id="#cccfd6ff">
<path fill="#cccfd6" opacity="1.00" d=" M 271.26 151.99 C 280.01 162.67 283.94 176.54 285.20 190.09 C 287.49 222.01 277.34 254.16 259.37 280.40 C 237.86 310.42 202.72 330.21 165.93 333.26 C 154.27 333.83 142.54 333.40 130.98 331.74 C 127.40 331.22 124.12 329.61 120.93 328.00 C 132.88 328.83 145.12 328.17 156.57 324.43 C 172.29 319.40 185.26 308.15 195.24 295.30 C 206.89 278.81 214.37 258.48 212.55 238.09 C 212.41 234.66 210.31 231.82 207.14 230.58 C 214.38 229.85 221.71 231.05 228.91 229.66 C 245.32 226.83 261.85 217.65 269.12 202.06 C 276.55 186.40 274.25 168.45 271.26 151.99 Z" />
</g>
</svg>
