<?xml version="1.0" encoding="utf-8"?>
<!-- Generator: Adobe Illustrator 19.0.0, SVG Export Plug-In . SVG Version: 6.00 Build 0)  -->
<svg version="1.1" id="Layer_1" xmlns="http://www.w3.org/2000/svg" xmlns:xlink="http://www.w3.org/1999/xlink" x="0px" y="0px"
	 viewBox="230 210 1483 350" style="enable-background:new 230 210 1483 350;" xml:space="preserve">
<style type="text/css">
	.st0{opacity:0.71;fill:#B5B5B5;enable-background:new    ;}
	.st1{opacity:0.82;fill:#CFCFCF;enable-background:new    ;}
	.st2{fill:#FFFFFF;}
	.st3{fill:#CCCFD6;}
</style>
<g id="_x23_b5b5b5b5">
	<path class="st0" d="M230,210h379l0.1,1c-126,0-252-0.1-378.1,0l-1,0V210z"/>
</g>
<g id="_x23_ffffffff">
</g>
<g id="_x23_cfcfcfd0">
	<path class="st1" d="M230,211.1l1,0c0.1,116,0,232,0.1,348c112,0,223.9,0,335.9,0c13.7,0.2,27.5-0.4,41.2,0.2
		c0.3,0.2,0.8,0.5,1.1,0.7H230V211.1z"/>
</g>
<g id="_x23_000f30ff">
	<path class="st2" d="M305.6,260.6c27.9-24,63.7-38.6,100.3-41.5c28.8-2.4,58.2,2.5,84.6,14.5c28.8,13,53.7,34.4,71.6,60.4
		c21.1,31.1,31.4,69.4,29,106.9c-1.4,24.4-8.4,48.4-19.7,70.1c-3.4,6-6.8,12.9-13.2,16.2c1.1-12.9,5.7-25.2,7.3-38.1
		c3.4-30-1.5-60.9-14.6-88.1c-13.2-27.7-35.1-51.2-62-66C465.3,282,438,276,411.1,276.5c2.3,7.5,4.7,15,7.1,22.5
		c-8.2,5.1-17.7,8.6-24.6,15.6c-6.1,7.6-9.8,16.7-14.6,25.1c-8.9-2.4-17.4-6.3-25.8-10c-15.7-6.9-31.1-14.5-47-20.9
		c-4.4-1.7-8.8-3.4-13.5-3.7c3.9,5.1,9.6,8.4,14.5,12.5c14,11.6,27.3,24,40.9,36.2c5.8,5.9,11.7,11.9,18.6,16.5
		c-7.8,16.6-15.3,33.4-23.1,50.1c-4.9,10.1-10.6,20.8-9.6,32.4c1.8,16.4,18.9,29,35.2,26.5c8.2-0.5,14.6-5.9,20.9-10.5
		c15.6-9.7,30.8-20.2,47.2-28.4c3.2,1.2,5.3,4.1,5.4,7.5c1.8,20.4-5.7,40.7-17.3,57.2c-10,12.9-23,24.1-38.7,29.1
		c-11.5,3.7-23.7,4.4-35.6,3.6c-21.4-3.1-40.8-14.8-56.1-29.8c-22.7-22.5-37.6-52.2-44.1-83.3c-6.8-31.8-3.9-65.4,7.3-95.9
		C267.7,302.6,284.3,278.9,305.6,260.6z"/>
	<path class="st2" d="M1451.9,346.8c17.3-15.1,43.7-17.7,64.3-8.1c4.8,2.4,9.6,5.5,13,9.8c-5.7,5.3-10.9,11.1-16.6,16.3
		c-0.3-0.1-0.8-0.3-1-0.4c-10.8-12.2-32.3-10.9-42.4,1.6c-9.4,11.8-9.5,30.1-0.4,42.1c10.3,13.5,33.9,14,43.8-0.1
		c6.1,5.2,11.7,11,17.6,16.3c-13.1,15.9-36,20.2-55.3,15.4c-15.6-3.8-29.5-14.9-35.7-29.9C1430.3,389,1434.4,362.1,1451.9,346.8z"/>
	<path class="st2" d="M813.2,335.9c8.5,0.1,16.9-0.2,25.4,0.2c-0.1,34.3-0.1,68.5,0,102.8c-8.5,0.1-16.9,0-25.4,0
		C813.2,404.6,813.2,370.2,813.2,335.9z"/>
	<path class="st2" d="M859.3,336c9.5-0.3,19-0.1,28.6-0.1c13.8,22.1,27.1,44.5,41.1,66.5c0.2-22.2-0.3-44.3-0.4-66.5
		c8.2,0,16.3,0,24.5,0c0,34.3,0,68.7,0,103c-9.5-0.1-19,0.2-28.6-0.1c-13.6-22.4-27.3-44.8-41.3-67c0.3,22.4,0.2,44.7,0.6,67.1
		c-8.2,0-16.4,0-24.5,0C859.4,404.6,859.4,370.3,859.3,336z"/>
	<path class="st2" d="M973.8,335.9c22.7,0,45.3,0,68,0c0,7.2-0.1,14.4,0,21.5c-14.4,0.2-28.8-0.1-43.2,0.2c0.1,6.8,0,13.7,0,20.5
		c13.2,0,26.4,0.1,39.7,0c0.1,7,0.1,14,0.1,21c-13.2-0.1-26.5,0-39.7,0c0,13.3,0,26.6,0,39.9c-8.3,0-16.6,0-24.9,0
		C973.9,404.5,973.8,370.2,973.8,335.9z"/>
	<path class="st2" d="M1057.3,336c8.4-0.1,16.9-0.2,25.4,0c-0.1,27-0.1,53.9,0,80.9c13.3,0,26.5,0,39.7,0c0,7.4,0,14.7,0,22.1
		c-21.7-0.1-43.4,0-65.1,0C1057.4,404.6,1057.4,370.3,1057.3,336z"/>
	<path class="st2" d="M1129,335.8c8.3,0,16.7,0,25.1,0c0,20.7,0,41.5,0,62.2c-0.1,7.4,2.8,15.7,9.9,19c6.9,3,15.8,2.6,21.8-2.2
		c4.8-4.1,6.4-10.7,6.4-16.8c0-20.7,0-41.4,0-62.1c8.4,0,16.8,0,25.3,0c0,21.4,0,42.8,0,64.1c0,10-3.1,20.2-9.9,27.6
		c-8.5,9.9-21.9,14.2-34.6,14c-11.1,0.1-22.6-3.1-31-10.6c-8.9-7.6-13-19.5-13-30.9C1129,378.6,1129,357.2,1129,335.8z"/>
	<path class="st2" d="M1237,335.9c23.1,0,46.3,0,69.4,0c0,7.1,0,14.3,0,21.4c-15,0-30,0-45,0c0,6.2,0.1,12.4-0.1,18.6
		c14.2,0.3,28.4,0,42.7,0.1c0,6.8,0,13.6,0,20.4c-14.2,0-28.4,0-42.6,0c0.1,7-0.2,14,0.1,20.9c15.8-0.2,31.6,0,47.4-0.1
		c0.2,7.2,0.1,14.5,0,21.7c-24,0-48,0-71.9,0C1237,404.6,1237,370.2,1237,335.9z"/>
	<path class="st2" d="M1325,335.9c9.4-0.1,18.8,0.1,28.3-0.1c14.2,22.1,27.4,44.8,41.5,66.9c-0.3-22.2-0.2-44.5-0.6-66.7
		c8.2-0.2,16.4-0.1,24.6,0c-0.1,34.3,0,68.6,0,103c-9.5,0-19,0.1-28.5-0.1c-13.5-22.4-27.5-44.5-41-66.9c-0.7,22.3,0.3,44.7,0.2,67
		c-8.2,0-16.3,0-24.4,0C1325,404.5,1325,370.2,1325,335.9z"/>
	<path class="st2" d="M1540.3,336c23.1-0.4,46.3-0.1,69.5-0.2c0,7.1,0,14.2,0,21.4c-15.1,0.2-30.2-0.2-45.2,0.2
		c0.1,6.2,0,12.4,0.1,18.6c14.2,0,28.4,0,42.7,0c0,6.8,0,13.6,0,20.4c-14.2,0.1-28.5-0.1-42.7,0.1c0.1,6.9,0,13.8,0.1,20.7
		c15.9,0.1,31.9-0.2,47.8,0.1c-0.2,7.2,0,14.3-0.1,21.5c-24-0.1-48,0.1-72.1-0.1C1540.4,404.6,1540.5,370.3,1540.3,336z"/>
	<path class="st2" d="M1628.3,335.9c9.2-0.2,18.4,0,27.6-0.1c10,0.1,20.3-0.7,29.9,2.6c8.3,2.5,16.1,8.3,19.2,16.7
		c3.5,9.6,2.8,21.2-3.6,29.4c-3.8,5.1-9.5,8.4-15.4,10.3c5.4,9.2,11.1,18.3,16.7,27.4c3.5,5.4,6.3,11.1,10.3,16.2v0.4
		c-9.9,0-19.8,0.1-29.7,0c-7.3-13.6-14.7-27.3-22.2-40.8c-2.7,0-5.3,0.1-8,0.1c0,13.6,0,27.1,0,40.7c-8.3,0-16.5,0-24.8,0
		C1628.4,404.6,1628.4,370.3,1628.3,335.9 M1653.1,356.2c-0.2,7.9-0.1,15.7,0,23.6c8-0.4,16.6,1.3,24-2.7c7-3.6,7.1-15.7-0.3-18.9
		C1669.3,355,1660.9,356.7,1653.1,356.2z"/>
	<path class="st2" d="M402.4,377c2.1-7.9,12-12.2,19.2-8.6c2.9,1.3,4.7,4,6.1,6.7c-6.2,2.9-12.5,5.6-18.3,9.1
		c-1.8,1.1-3.8,1.9-5.7,2.6C401.1,384.3,401.7,380.3,402.4,377z"/>
</g>
<g id="_x23_6d84c1ff">
	<path class="st2" d="M643.5,330.7c7.3-2.4,16.3,2.5,17.6,10.3c1.8,7.8-5.2,15.8-13.1,15.6c-6.4,0.5-12.8-4.3-14.1-10.6
		C632.4,339.4,637.1,332.4,643.5,330.7z"/>
	<path class="st2" d="M701.4,376c4.8-7.6,13.6-12.4,22.6-11.8c8.5-0.2,16.7,4.5,20.9,11.9c3.8-5.5,9.4-9.9,16.1-11.2
		c8.6-1.8,18.6-0.4,24.9,6.1c6.9,6.7,8.8,16.8,8.5,26c0,14,0,27.9,0,41.9c-8.1,0-16.2,0-24.3,0c0-13.6,0-27.3,0-40.9
		c-0.1-4.2-0.6-9.2-4.1-12.1c-4.5-3.1-11.4-1.9-14.6,2.5c-2.4,3.3-3.2,7.5-3.1,11.5c0,13,0,26,0,38.9c-8.1,0-16.2,0-24.3,0
		c0-13.9,0-27.9,0-41.8c0-4.2-0.9-8.9-4.6-11.5c-4.7-2.8-11.6-1.3-14.5,3.5c-2,3.2-2.7,7.1-2.6,10.9c0,13,0,25.9,0,38.9
		c-8.1,0-16.2,0-24.4,0c0-24.2,0-48.4,0-72.7c7.8,0.1,15.7-0.1,23.5,0.1C701.5,369.6,701.5,372.8,701.4,376z"/>
	<path class="st2" d="M635.4,366.3c8,0,16.1,0,24.1,0c0,24.2-0.1,48.4,0,72.6c-8.1,0-16.1,0-24.2,0
		C635.5,414.7,635.5,390.5,635.4,366.3z"/>
</g>
<g id="_x23_cccfd6ff">
	<path class="st3" d="M501.3,362c8.8,10.7,12.7,24.5,13.9,38.1c2.3,31.9-7.9,64.1-25.8,90.3c-21.5,30-56.6,49.8-93.4,52.9
		c-11.7,0.6-23.4,0.1-35-1.5c-3.6-0.5-6.9-2.1-10-3.7c12,0.8,24.2,0.2,35.6-3.6c15.7-5,28.7-16.3,38.7-29.1
		c11.7-16.5,19.1-36.8,17.3-57.2c-0.1-3.4-2.2-6.3-5.4-7.5c7.2-0.7,14.6,0.5,21.8-0.9c16.4-2.8,32.9-12,40.2-27.6
		C506.5,396.4,504.3,378.5,501.3,362z"/>
</g>
</svg>
