<?xml version="1.0" encoding="utf-8"?>
<!-- Generator: Adobe Illustrator 19.0.0, SVG Export Plug-In . SVG Version: 6.00 Build 0)  -->
<svg version="1.1" xmlns="http://www.w3.org/2000/svg" xmlns:xlink="http://www.w3.org/1999/xlink" x="0px" y="0px"
	 viewBox="0 0 828.6 640.8" style="enable-background:new 0 0 828.6 640.8;" xml:space="preserve">
<style type="text/css">
	.st0{fill:#FFFFFF;}
	.st1{fill:#F0F9FC;}
	.st2{fill:#FF9C81;}
	.st3{fill:#6A79A8;}
	.st4{fill:#C0ECFF;}
	.st5{fill:#BBDFF5;}
	.st6{fill:#FFC261;}
</style>
<g id="Ñëîé_1_1_">
	<rect id="XMLID_32_" x="-342.5" y="-357.1" class="st0" width="1400" height="1200"/>
</g>
<g id="Ñëîé_2">
</g>
<g id="Ñëîé_3">
	<g id="XMLID_39_">
		<path id="XMLID_44_" class="st1" d="M352.3,330.4h431c15.6,0,28.4,12.8,28.4,28.4v11.4c0,15.6-12.8,28.4-28.4,28.4h-431
			c-15.6,0-28.4-12.8-28.4-28.4v-11.4C323.9,343.2,336.7,330.4,352.3,330.4z"/>
		<path id="XMLID_43_" class="st1" d="M317,422.2h172.8c15,0,27.2,12.2,27.2,27.2l0,0c0,15-12.2,27.2-27.2,27.2H317
			c-15,0-27.2-12.2-27.2-27.2l0,0C289.8,434.4,302,422.2,317,422.2z"/>
		<path id="XMLID_42_" class="st1" d="M284.7,254.9h172.8c15,0,27.2,12.2,27.2,27.2v0c0,15-12.2,27.2-27.2,27.2H284.7
			c-15,0-27.2-12.2-27.2-27.2v0C257.5,267.1,269.7,254.9,284.7,254.9z"/>
		<path id="XMLID_41_" class="st1" d="M375.4,307.1c8.4,0,15.3,5.2,15.3,11.6s-6.8,11.6-15.3,11.6H442c-8.4,0-15.3-5.2-15.3-11.6
			s6.8-11.6,15.3-11.6H375.4z"/>
		<path id="XMLID_40_" class="st1" d="M353.9,397.9c8.8,0,15.9,5.4,15.9,12.1s-7.1,12.1-15.9,12.1h69.5c-8.8,0-15.9-5.4-15.9-12.1
			s7.1-12.1,15.9-12.1H353.9z"/>
	</g>
	<g id="XMLID_38_">
		<path id="XMLID_45_" class="st1" d="M784.9,571.2h-431c-15.6,0-28.4-12.8-28.4-28.4v-11.4c0-15.6,12.8-28.4,28.4-28.4h431
			c15.6,0,28.4,12.8,28.4,28.4v11.4C813.3,558.5,800.5,571.2,784.9,571.2z"/>
		<path id="XMLID_46_" class="st1" d="M820.2,479.5H647.4c-15,0-27.2-12.2-27.2-27.2l0,0c0-15,12.2-27.2,27.2-27.2h172.8
			c15,0,27.2,12.2,27.2,27.2l0,0C847.4,467.2,835.2,479.5,820.2,479.5z"/>
		<path id="XMLID_47_" class="st1" d="M852.5,646.8H679.7c-15,0-27.2-12.2-27.2-27.2l0,0c0-15,12.2-27.2,27.2-27.2h172.8
			c15,0,27.2,12.2,27.2,27.2l0,0C879.8,634.5,867.5,646.8,852.5,646.8z"/>
		<path id="XMLID_48_" class="st1" d="M761.8,594.5c-8.4,0-15.3-5.2-15.3-11.6s6.8-11.6,15.3-11.6h-66.6c8.4,0,15.3,5.2,15.3,11.6
			s-6.8,11.6-15.3,11.6H761.8z"/>
		<path id="XMLID_49_" class="st1" d="M783.3,503.8c-8.8,0-15.9-5.4-15.9-12.1c0-6.7,7.1-12.1,15.9-12.1h-69.5
			c8.8,0,15.9,5.4,15.9,12.1c0,6.7-7.1,12.1-15.9,12.1H783.3z"/>
	</g>
	<g id="XMLID_50_">
		<path id="XMLID_51_" class="st1" d="M215.5,565.2h-431c-15.6,0-28.4-12.8-28.4-28.4v-11.4c0-15.6,12.8-28.4,28.4-28.4h431
			c15.6,0,28.4,12.8,28.4,28.4v11.4C243.9,552.5,231.1,565.2,215.5,565.2z"/>
		<path id="XMLID_52_" class="st1" d="M250.8,473.5H78c-15,0-27.2-12.2-27.2-27.2l0,0c0-15,12.2-27.2,27.2-27.2h172.8
			c15,0,27.2,12.2,27.2,27.2l0,0C278,461.2,265.8,473.5,250.8,473.5z"/>
		<path id="XMLID_53_" class="st1" d="M283.1,640.8H110.3c-15,0-27.2-12.2-27.2-27.2l0,0c0-15,12.2-27.2,27.2-27.2h172.8
			c15,0,27.2,12.2,27.2,27.2l0,0C310.3,628.5,298.1,640.8,283.1,640.8z"/>
		<path id="XMLID_54_" class="st1" d="M192.4,588.5c-8.4,0-15.3-5.2-15.3-11.6c0-6.4,6.8-11.6,15.3-11.6h-66.6
			c8.4,0,15.3,5.2,15.3,11.6c0,6.4-6.8,11.6-15.3,11.6H192.4z"/>
		<path id="XMLID_55_" class="st1" d="M213.9,497.8c-8.8,0-15.9-5.4-15.9-12.1c0-6.7,7.1-12.1,15.9-12.1h-69.5
			c8.8,0,15.9,5.4,15.9,12.1c0,6.7-7.1,12.1-15.9,12.1H213.9z"/>
	</g>
</g>
<g id="Ñëîé_4">
	<polygon id="XMLID_90_" class="st2" points="67.5,104.9 51.8,109.1 58,94.1 49.2,80.5 65.4,81.8 75.6,69.2 79.4,85 94.5,90.8 
		80.7,99.3 79.8,115.5 	"/>
	<g id="XMLID_85_">
		<g id="XMLID_89_">
			<rect id="XMLID_146_" x="692.3" y="480.5" class="st3" width="6" height="14.9"/>
		</g>
		<g id="XMLID_88_">
			<rect id="XMLID_145_" x="692.3" y="510.6" class="st3" width="6" height="14.9"/>
		</g>
		<g id="XMLID_87_">
			<rect id="XMLID_144_" x="672.7" y="499.9" class="st3" width="14.9" height="6"/>
		</g>
		<g id="XMLID_86_">
			<rect id="XMLID_143_" x="702.8" y="499.9" class="st3" width="14.9" height="6"/>
		</g>
	</g>
	<g id="XMLID_79_">
		<g id="XMLID_94_">
			<rect id="XMLID_142_" x="274.6" y="9.5" class="st3" width="6" height="14.9"/>
		</g>
		<g id="XMLID_93_">
			<rect id="XMLID_141_" x="274.6" y="39.6" class="st3" width="6" height="14.9"/>
		</g>
		<g id="XMLID_92_">
			<rect id="XMLID_140_" x="255" y="28.9" class="st3" width="14.9" height="6"/>
		</g>
		<g id="XMLID_91_">
			<rect id="XMLID_139_" x="285.1" y="28.9" class="st3" width="14.9" height="6"/>
		</g>
	</g>
	<polygon id="XMLID_95_" class="st4" points="543.2,123.8 533.3,136.7 529.1,121 513.9,115.5 527.5,106.7 528,90.5 540.6,100.7 
		556.1,96.2 550.3,111.3 559.4,124.7 	"/>
	<g id="XMLID_96_">
		<g id="XMLID_100_">
			<rect id="XMLID_138_" x="503" y="583.1" class="st2" width="6" height="14.9"/>
		</g>
		<g id="XMLID_99_">
			<rect id="XMLID_137_" x="503" y="613.2" class="st2" width="6" height="14.9"/>
		</g>
		<g id="XMLID_98_">
			<rect id="XMLID_136_" x="483.5" y="602.5" class="st2" width="14.9" height="6"/>
		</g>
		<g id="XMLID_97_">
			<rect id="XMLID_135_" x="513.6" y="602.5" class="st2" width="14.9" height="6"/>
		</g>
	</g>
	<g id="XMLID_105_">
		<path id="XMLID_132_" class="st5" d="M114.3,264c-11.2,0-20.3-9.1-20.3-20.3c0-11.2,9.1-20.3,20.3-20.3c11.2,0,20.3,9.1,20.3,20.3
			C134.7,254.9,125.5,264,114.3,264z M114.3,231.3c-6.8,0-12.3,5.5-12.3,12.3c0,6.8,5.5,12.3,12.3,12.3c6.8,0,12.3-5.5,12.3-12.3
			C126.7,236.9,121.1,231.3,114.3,231.3z"/>
	</g>
	<g id="XMLID_80_">
		<path id="XMLID_129_" class="st5" d="M702.8,249.2c-11.2,0-20.3-9.1-20.3-20.3c0-11.2,9.1-20.3,20.3-20.3
			c11.2,0,20.3,9.1,20.3,20.3C723.2,240.1,714,249.2,702.8,249.2z M702.8,216.5c-6.8,0-12.3,5.5-12.3,12.3c0,6.8,5.5,12.3,12.3,12.3
			c6.8,0,12.3-5.5,12.3-12.3C715.2,222.1,709.6,216.5,702.8,216.5z"/>
	</g>
	<g id="XMLID_83_">
		<g id="XMLID_103_">
			<rect id="XMLID_128_" x="80.2" y="267.2" class="st2" width="6" height="14.9"/>
		</g>
		<g id="XMLID_102_">
			<rect id="XMLID_126_" x="80.2" y="297.3" class="st2" width="6" height="14.9"/>
		</g>
		<g id="XMLID_101_">
			<rect id="XMLID_124_" x="60.6" y="286.6" class="st2" width="14.9" height="6"/>
		</g>
		<g id="XMLID_84_">
			<rect id="XMLID_123_" x="90.7" y="286.6" class="st2" width="14.9" height="6"/>
		</g>
	</g>
	<g id="XMLID_107_">
		<g id="XMLID_111_">
			<rect id="XMLID_122_" x="526.7" y="327.2" class="st3" width="6" height="14.9"/>
		</g>
		<g id="XMLID_110_">
			<rect id="XMLID_121_" x="526.7" y="357.3" class="st3" width="6" height="14.9"/>
		</g>
		<g id="XMLID_109_">
			<rect id="XMLID_116_" x="507.1" y="346.6" class="st3" width="14.9" height="6"/>
		</g>
		<g id="XMLID_108_">
			<rect id="XMLID_115_" x="537.2" y="346.6" class="st3" width="14.9" height="6"/>
		</g>
	</g>
	<polygon id="XMLID_62_" class="st6" points="729.4,369.9 713.7,374.1 720,359.1 711.1,345.5 727.3,346.8 737.6,334.2 741.3,350 
		756.5,355.8 742.6,364.3 741.7,380.5 	"/>
	<g id="XMLID_63_">
		<g id="XMLID_64_">
			<rect id="XMLID_65_" x="684.7" y="136.1" class="st3" width="6" height="14.9"/>
		</g>
		<g id="XMLID_66_">
			<rect id="XMLID_67_" x="684.7" y="166.2" class="st3" width="6" height="14.9"/>
		</g>
		<g id="XMLID_68_">
			<rect id="XMLID_69_" x="665.1" y="155.5" class="st3" width="14.9" height="6"/>
		</g>
		<g id="XMLID_70_">
			<rect id="XMLID_71_" x="695.2" y="155.5" class="st3" width="14.9" height="6"/>
		</g>
	</g>
</g>
<g id="Ñëîé_5">
	<g id="XMLID_76_">
		
			<rect id="XMLID_338_" x="260.5" y="219.2" transform="matrix(0.1383 0.9904 -0.9904 0.1383 641.9147 -39.2031)" class="st0" width="166" height="260.1"/>
		
			<rect id="XMLID_337_" x="271.5" y="227" transform="matrix(0.1383 0.9904 -0.9904 0.1383 659.1237 -43.4848)" class="st5" width="166" height="260.1"/>
		<g id="XMLID_73_">
			<path id="XMLID_168_" class="st3" d="M226.2,451.5c-1,0-1.8-0.7-2-1.7l-23-164.4c-0.1-0.5,0.1-1.1,0.4-1.5
				c0.3-0.4,0.8-0.7,1.3-0.8l257.6-36c1.1-0.1,2.1,0.6,2.3,1.7l23,164.4c0.1,0.5-0.1,1.1-0.4,1.5c-0.3,0.4-0.8,0.7-1.3,0.8
				l-257.6,36C226.3,451.5,226.2,451.5,226.2,451.5z M205.4,286.8l22.4,160.5l253.7-35.4l-22.4-160.5L205.4,286.8z"/>
		</g>
		<g id="XMLID_251_">
			<g id="XMLID_256_">
				<g id="XMLID_263_">
					<path id="XMLID_165_" class="st3" d="M412.1,255.4l1.8-0.3c3.5,25.3,27,43.1,52.3,39.5l0.3,1.8
						C440.2,300.2,415.7,281.8,412.1,255.4z"/>
					<path id="XMLID_174_" class="st3" d="M459.8,298c-24.2,0-45.3-17.8-48.7-42.4l-0.1-1l3.8-0.5l0.1,1
						c3.5,24.8,26.4,42.1,51.2,38.7l1-0.1l0.5,3.8l-1,0.1C464.3,297.8,462.1,298,459.8,298z"/>
				</g>
			</g>
			<g id="XMLID_253_">
				<g id="XMLID_254_">
					<path id="XMLID_160_" class="st3" d="M435,419.4c-3.7-26.3,14.8-50.8,41.1-54.4l0.3,1.8c-25.3,3.5-43.1,27-39.5,52.3L435,419.4
						z"/>
					<path id="XMLID_175_" class="st3" d="M434.1,420.5l-0.1-1c-3.8-26.9,15.1-51.8,42-55.6l1-0.1l0.5,3.8l-1,0.1
						c-24.8,3.5-42.1,26.4-38.7,51.2l0.1,1L434.1,420.5z"/>
				</g>
			</g>
		</g>
		<g id="XMLID_246_">
			<g id="XMLID_249_">
				<g id="XMLID_250_">
					<path id="XMLID_155_" class="st3" d="M209.4,332.4l-0.3-1.8c25.3-3.5,43.1-27,39.5-52.3l1.8-0.3
						C254.2,304.3,235.8,328.8,209.4,332.4z"/>
					<path id="XMLID_176_" class="st3" d="M208.6,333.6l-0.5-3.8l1-0.1c12-1.7,22.6-7.9,29.9-17.6c7.3-9.7,10.4-21.6,8.7-33.6
						l-0.1-1l3.8-0.5l0.1,1c3.8,26.9-15.1,51.8-42,55.6L208.6,333.6z"/>
				</g>
			</g>
			<g id="XMLID_247_">
				<g id="XMLID_248_">
					<path id="XMLID_150_" class="st3" d="M219.2,402.7l-0.3-1.8c26.3-3.7,50.8,14.8,54.4,41.1l-1.8,0.3
						C268.1,416.9,244.6,399.2,219.2,402.7z"/>
					<path id="XMLID_177_" class="st3" d="M270.7,443.3l-0.1-1c-1.7-12-7.9-22.6-17.6-29.9c-9.7-7.3-21.6-10.4-33.6-8.7l-1,0.1
						l-0.5-3.8l1-0.1c13-1.8,26,1.6,36.5,9.5c10.5,7.9,17.3,19.5,19.1,32.5l0.1,1L270.7,443.3z"/>
				</g>
			</g>
		</g>
		<g id="XMLID_232_">
			<g id="XMLID_236_">
				<g id="XMLID_237_">
					<path id="XMLID_119_" class="st3" d="M290.5,356.9c-4-29,16.2-55.9,45.2-59.9c29-4,55.9,16.2,59.9,45.2
						c4,29-16.2,55.9-45.2,59.9C321.4,406.2,294.5,385.9,290.5,356.9z M393.8,342.5c-3.9-28-29.8-47.5-57.8-43.6
						c-28,3.9-47.5,29.8-43.6,57.8c3.9,28,29.8,47.5,57.8,43.6C378.1,396.4,397.7,370.5,393.8,342.5z"/>
					<path id="XMLID_178_" class="st3" d="M343,403.6c-26.5,0-49.7-19.6-53.5-46.6l0,0c-4.1-29.5,16.5-56.9,46.1-61
						c14.3-2,28.5,1.7,40,10.4c11.5,8.7,19,21.4,21,35.7c2,14.3-1.7,28.5-10.4,40c-8.7,11.5-21.4,19-35.7,21
						C348,403.5,345.5,403.6,343,403.6z M343.1,299.4c-2.3,0-4.6,0.2-7,0.5c-13.3,1.9-25,8.8-33.1,19.5
						c-8.1,10.7-11.5,23.9-9.7,37.2c1.9,13.3,8.8,25,19.5,33.1c10.7,8.1,23.9,11.5,37.2,9.7c13.3-1.9,25-8.8,33.1-19.5
						c8.1-10.7,11.5-23.9,9.7-37.2C389.3,317.6,367.7,299.4,343.1,299.4z"/>
				</g>
			</g>
			<g id="XMLID_233_">
				<path id="XMLID_234_" class="st3" d="M353.7,357.2c-0.3-2.2-1.3-3.9-2.9-5.1c-1.6-1.2-4.3-2.2-8.1-3c-4.3-0.7-7.6-1.9-9.9-3.5
					c-2.2-1.6-3.6-4-4.1-7.4c-0.5-3.2,0.2-6,1.9-8.3c1.7-2.3,4.3-3.8,7.6-4.6l-0.8-6l3-0.4l0.8,6c3.5-0.2,6.4,0.7,8.6,2.7
					c2.2,2,3.6,4.9,4.1,8.7l0,0.2l-3.4,0.5c-0.4-2.9-1.5-5.2-3.4-6.8c-1.9-1.6-4.2-2.2-7-1.8c-2.9,0.4-5.1,1.5-6.4,3.2
					c-1.3,1.7-1.8,3.8-1.5,6.2c0.3,2.3,1.2,4,2.8,5.2c1.5,1.2,4.3,2.2,8.4,2.9c4.3,0.8,7.6,2,9.8,3.5c2.2,1.5,3.6,4,4,7.3
					c0.5,3.3-0.2,6.1-2,8.3c-1.8,2.3-4.4,3.8-7.9,4.6l0.8,5.7l-3,0.4l-0.8-5.6c-3.6,0.3-6.8-0.4-9.5-2.2c-2.7-1.7-4.3-4.7-4.8-8.9
					l0.1-0.2l3.3-0.5c0.5,3.5,1.9,5.9,4.1,7.2c2.2,1.3,4.8,1.7,7.6,1.3c2.9-0.4,5.2-1.5,6.7-3.3C353.4,361.7,354,359.6,353.7,357.2z
					"/>
			</g>
		</g>
	</g>
	<g id="XMLID_74_">
		<g id="XMLID_309_">
			<path id="XMLID_172_" class="st0" d="M255.5,584.1l275.4,0.8c3.2,0,5.8-2.6,5.8-5.8v-190c0-3.2-2.6-5.8-5.8-5.8H263.3h-0.6
				c-9.3,0.2-12.3,6.3-12.5,11.2l0,0.3l-0.2,177.4c0,0,0.2,4.8,1,7.1c0.8,2.3,1.9,4.6,1.9,4.6L255.5,584.1z"/>
			<g id="XMLID_173_">
				<path id="XMLID_183_" class="st3" d="M530.9,587C530.9,587,530.9,587,530.9,587l-275.4-0.8c0,0,0,0-0.1,0l-2.6-0.1
					c-0.8,0-1.4-0.5-1.7-1.1c0-0.1-1.2-2.5-2-4.8c-0.9-2.5-1.1-7.1-1.1-7.6l0.2-177.8c0.2-6,4.1-13,14.4-13.2h268.3
					c4.3,0,7.8,3.5,7.8,7.8v190c0,2.1-0.8,4-2.3,5.5C534.9,586.2,533,587,530.9,587z M255.5,582.1l275.3,0.8c0,0,0,0,0,0
					c1,0,1.9-0.4,2.7-1.1c0.7-0.7,1.1-1.7,1.1-2.7v-190c0-2.1-1.7-3.8-3.8-3.8H262.6c-9.5,0.2-10.4,7.1-10.5,9.2v0.3l-0.2,177.4
					c0.1,1.1,0.3,4.7,0.9,6.4c0.4,1.2,1,2.5,1.3,3.3L255.5,582.1z"/>
			</g>
		</g>
		<g id="XMLID_215_">
			<g id="XMLID_186_">
				
					<rect id="XMLID_336_" x="290.3" y="188.1" transform="matrix(-0.9318 0.3629 -0.3629 -0.9318 836.6029 479.2437)" class="st0" width="166" height="260.1"/>
				<path id="XMLID_187_" class="st3" d="M343.1,471.5c-0.3,0-0.5-0.1-0.8-0.2c-0.5-0.2-0.9-0.6-1.1-1.1l-94.4-242.4
					c-0.2-0.5-0.2-1,0-1.5c0.2-0.5,0.6-0.9,1.1-1.1L402.7,165c1-0.4,2.2,0.1,2.6,1.1l94.4,242.4c0.4,1-0.1,2.2-1.1,2.6l-154.7,60.3
					C343.6,471.5,343.4,471.5,343.1,471.5z M251.3,228.3l93,238.7l151-58.8l-93-238.7L251.3,228.3z"/>
			</g>
			<g id="XMLID_190_">
				<g id="XMLID_195_">
					<g id="XMLID_196_">
						<path id="XMLID_303_" class="st3" d="M480.4,363.3l0.7,1.7c-23.8,9.3-35.7,36.2-26.4,60l-1.7,0.7
							C443.3,401,455.7,372.9,480.4,363.3z"/>
						<path id="XMLID_193_" class="st3" d="M452.4,427l-0.4-0.9c-4.8-12.2-4.5-25.6,0.8-37.7c5.3-12.1,15-21.3,27.2-26.1l0.9-0.4
							l1.4,3.6l-0.9,0.4c-23.3,9.1-34.9,35.4-25.8,58.8l0.4,0.9L452.4,427z"/>
					</g>
				</g>
				<g id="XMLID_191_">
					<g id="XMLID_192_">
						<path id="XMLID_299_" class="st3" d="M326.2,423.4c24.8-9.7,52.8,2.7,62.5,27.4l-1.7,0.7c-9.3-23.8-36.2-35.7-60-26.4
							L326.2,423.4z"/>
						<path id="XMLID_194_" class="st3" d="M386.3,452.8l-0.4-0.9c-4.4-11.3-12.9-20.2-24-25.1c-11.1-4.9-23.4-5.2-34.7-0.8
							l-0.9,0.4l-1.4-3.6l0.9-0.4c25.3-9.9,53.9,2.7,63.8,28l0.4,0.9L386.3,452.8z"/>
					</g>
				</g>
			</g>
			<g id="XMLID_197_">
				<g id="XMLID_198_">
					<g id="XMLID_199_">
						<path id="XMLID_258_" class="st3" d="M358.8,183.9l1.7-0.7c9.3,23.8,36.2,35.7,60,26.4l0.7,1.7
							C396.5,221,368.4,208.7,358.8,183.9z"/>
						<path id="XMLID_200_" class="st3" d="M403.8,215.6c-19.7,0-38.4-11.9-45.9-31.4l-0.4-0.9l3.6-1.4l0.4,0.9
							c9.1,23.3,35.4,34.9,58.8,25.8l0.9-0.4l1.4,3.6l-0.9,0.4C415.8,214.5,409.7,215.6,403.8,215.6z"/>
					</g>
				</g>
				<g id="XMLID_201_">
					<g id="XMLID_202_">
						<path id="XMLID_243_" class="st3" d="M292.7,209.6l1.7-0.7c9.7,24.8-2.7,52.8-27.4,62.5l-0.7-1.7
							C290.1,260.4,302,233.4,292.7,209.6z"/>
						<path id="XMLID_203_" class="st3" d="M266.4,272.7l-1.4-3.6l0.9-0.4c23.3-9.1,34.9-35.4,25.8-58.8l-0.4-0.9l3.6-1.4l0.4,0.9
							c4.8,12.2,4.5,25.6-0.8,37.7c-5.3,12.1-15,21.3-27.2,26.1L266.4,272.7z"/>
					</g>
				</g>
			</g>
			<g id="XMLID_204_">
				<circle id="XMLID_205_" class="st5" cx="384.3" cy="318.4" r="51.9"/>
				<g id="XMLID_206_">
					<g id="XMLID_207_">
						<path id="XMLID_227_" class="st3" d="M353.7,268.4c27.3-10.6,58.1,2.9,68.7,30.2c10.6,27.3-2.9,58.1-30.2,68.7
							c-27.3,10.6-58.1-2.9-68.7-30.2C312.9,309.8,326.4,279,353.7,268.4z M391.5,365.6c26.3-10.2,39.4-40,29.1-66.3
							c-10.2-26.3-40-39.4-66.3-29.1c-26.3,10.2-39.4,40-29.1,66.3C335.5,362.7,365.2,375.8,391.5,365.6z"/>
						<path id="XMLID_208_" class="st3" d="M373,371.9c-21.6,0-42.1-13.1-50.4-34.4c-5.2-13.4-4.9-28.1,0.9-41.4
							c5.8-13.2,16.4-23.4,29.9-28.6c13.4-5.2,28.1-4.9,41.4,0.9c13.2,5.8,23.4,16.4,28.6,29.9c10.8,27.8-3,59.2-30.8,70
							C386.1,370.7,379.5,371.9,373,371.9z M372.9,267.6c-6.1,0-12.3,1.1-18.2,3.4c-25.8,10-38.6,39.2-28.6,65
							c4.9,12.5,14.3,22.3,26.6,27.7c12.3,5.4,25.9,5.7,38.4,0.8l0,0c12.5-4.9,22.3-14.3,27.7-26.6c5.4-12.3,5.7-25.9,0.8-38.4
							c-4.9-12.5-14.3-22.3-26.6-27.7C386.6,269.1,379.8,267.6,372.9,267.6z"/>
					</g>
				</g>
				<g id="XMLID_213_">
					<path id="XMLID_214_" class="st3" d="M367.9,329.9c2.1-0.8,3.5-2.1,4.3-4c0.8-1.9,1.1-4.7,1-8.6c-0.3-4.4,0.1-7.8,1.1-10.4
						c1-2.6,3.1-4.4,6.3-5.7c3-1.2,5.9-1.2,8.5-0.1c2.6,1.1,4.7,3.3,6.2,6.4l5.7-2.2l1.1,2.9l-5.7,2.2c1,3.4,0.8,6.4-0.7,9
						c-1.4,2.6-3.9,4.6-7.5,6l-0.2,0l-1.2-3.2c2.8-1.1,4.7-2.7,5.9-4.9c1.2-2.2,1.2-4.6,0.2-7.3c-1.1-2.8-2.6-4.6-4.6-5.5
						c-2-0.9-4.1-0.9-6.3,0c-2.1,0.8-3.6,2.1-4.4,3.9c-0.8,1.8-1.1,4.7-0.9,8.8c0.2,4.4-0.2,7.8-1.2,10.3c-1,2.5-3,4.4-6.2,5.6
						c-3.1,1.2-6,1.2-8.6,0c-2.6-1.2-4.7-3.4-6.3-6.6l-5.3,2.1l-1.1-2.9l5.3-2.1c-1.1-3.5-1.1-6.7,0-9.7c1.1-3,3.6-5.2,7.6-6.7
						l0.2,0l1.2,3.1c-3.3,1.3-5.3,3.2-6.1,5.6c-0.7,2.5-0.6,5,0.5,7.7c1.1,2.8,2.7,4.7,4.7,5.7C363.6,330.7,365.7,330.8,367.9,329.9
						z"/>
				</g>
			</g>
		</g>
		<g id="XMLID_162_">
			<path id="XMLID_226_" class="st0" d="M249.9,572.3l0.2-177.4l0.2-1.6c0,0,1.5,3.5,7.3,3.2h259.5c3,0,5.4,2.4,5.4,5.4v189.6
				c0,3-2.4,5.4-5.4,5.4H274.5C260.9,596.9,249.9,585.9,249.9,572.3z"/>
			<g id="XMLID_239_">
				<path id="XMLID_240_" class="st3" d="M517.2,598.9H274.5c-14.7,0-26.6-11.9-26.6-26.6c0,0,0,0,0,0l0.2-177.4c0-0.1,0-0.2,0-0.3
					l0.2-1.6c0.1-0.9,0.8-1.6,1.7-1.7c0.9-0.1,1.7,0.4,2.1,1.2c0,0.1,1.2,2.3,5.3,2c0,0,0.1,0,0.1,0h259.6c4.1,0,7.4,3.3,7.4,7.4
					v189.6C524.6,595.6,521.3,598.9,517.2,598.9z M251.9,572.4c0,12.5,10.1,22.6,22.6,22.6h242.7c1.9,0,3.4-1.5,3.4-3.4V402
					c0-1.9-1.5-3.4-3.4-3.4H257.7c-2.4,0.1-4.2-0.3-5.6-1L251.9,572.4L251.9,572.4z"/>
			</g>
		</g>
		<g id="XMLID_154_">
			<path id="XMLID_264_" class="st0" d="M539,477.8h-66.5l-12.1,12.1c-5.5,5.5-5.3,14.4,0.5,19.6l11,10l67.1,0V477.8z"/>
			<g id="XMLID_265_">
				<path id="XMLID_266_" class="st3" d="M539,521.5L539,521.5l-67.1,0c-0.5,0-1-0.2-1.3-0.5l-11-10c-3.2-2.9-5-6.8-5.1-11.1
					c-0.1-4.3,1.5-8.3,4.5-11.3l12.1-12.1c0.4-0.4,0.9-0.6,1.4-0.6h13c1.1,0,2,0.9,2,2c0,1.1-0.9,2-2,2h-12.2l-11.5,11.5
					c-2.3,2.3-3.5,5.2-3.4,8.4c0.1,3.2,1.4,6.1,3.8,8.3l10.4,9.5l64.3,0v-37.7h-38.2c-1.1,0-2-0.9-2-2c0-1.1,0.9-2,2-2H539
					c1.1,0,2,0.9,2,2v41.7c0,0.5-0.2,1-0.6,1.4S539.5,521.5,539,521.5z"/>
			</g>
			<g id="XMLID_267_">
				<path id="XMLID_268_" class="st3" d="M492.2,509.7c-5.8,0-10.6-4.7-10.6-10.6s4.7-10.6,10.6-10.6s10.6,4.7,10.6,10.6
					S498.1,509.7,492.2,509.7z M492.2,492.6c-3.6,0-6.6,2.9-6.6,6.6c0,3.6,2.9,6.6,6.6,6.6c3.6,0,6.6-2.9,6.6-6.6
					C498.8,495.5,495.8,492.6,492.2,492.6z"/>
			</g>
		</g>
		<g id="XMLID_117_">
			<g id="XMLID_271_">
				<path id="XMLID_272_" class="st3" d="M511.7,467.1c-1.1,0-2-0.9-2-2v-30.6c0-1.1,0.9-2,2-2c1.1,0,2,0.9,2,2v30.6
					C513.7,466.2,512.8,467.1,511.7,467.1z"/>
			</g>
			<g id="XMLID_273_">
				<path id="XMLID_274_" class="st3" d="M420,587.9h-14.9c-1.1,0-2-0.9-2-2c0-1.1,0.9-2,2-2H420c1.1,0,2,0.9,2,2
					C422,587,421.1,587.9,420,587.9z"/>
			</g>
			<g id="XMLID_275_">
				<path id="XMLID_276_" class="st3" d="M461.4,587.9h-23.5c-1.1,0-2-0.9-2-2c0-1.1,0.9-2,2-2h23.5c1.1,0,2,0.9,2,2
					C463.4,587,462.5,587.9,461.4,587.9z"/>
			</g>
			<g id="XMLID_277_">
				<path id="XMLID_278_" class="st3" d="M379,587.9h-68.5c-1.1,0-2-0.9-2-2c0-1.1,0.9-2,2-2H379c1.1,0,2,0.9,2,2
					C381,587,380.1,587.9,379,587.9z"/>
			</g>
			<g id="XMLID_279_">
				<path id="XMLID_280_" class="st3" d="M260.6,489.3c-1.1,0-2-0.9-2-2v-56c0-1.1,0.9-2,2-2s2,0.9,2,2v56
					C262.6,488.4,261.7,489.3,260.6,489.3z"/>
			</g>
			<g id="XMLID_281_">
				<path id="XMLID_282_" class="st3" d="M259.9,533.7c-1.1,0-2-0.9-2-2v-20.4c0-1.1,0.9-2,2-2s2,0.9,2,2v20.4
					C261.9,532.8,261.1,533.7,259.9,533.7z"/>
			</g>
		</g>
		<g id="XMLID_75_">
			<g id="XMLID_283_">
				<path id="XMLID_284_" class="st3" d="M418,513.3c-0.1,0-0.1,0-0.2,0c-2.9,0-5.5-1.2-7.5-3.2c-2-2-3.1-4.7-3-7.6c0-1.1,0.9-2,2-2
					c1.1,0,2,0.9,2,2c0,1.8,0.6,3.5,1.9,4.8c1.2,1.3,2.9,2,4.7,2c1.8,0.1,3.5-0.6,4.8-1.9c1.3-1.2,2-2.9,2-4.7c0-1.1,0.9-2,2-2
					c1.1,0,2,0.9,2,2c0,2.9-1.2,5.5-3.2,7.5C423.4,512.2,420.8,513.3,418,513.3z"/>
			</g>
			<g id="XMLID_285_">
				<path id="XMLID_286_" class="st3" d="M351.6,512.7c-0.1,0-0.1,0-0.2,0c-2.9,0-5.5-1.2-7.5-3.2c-2-2-3.1-4.7-3-7.6
					c0-1.1,0.9-2,2-2c0,0,0,0,0,0c1.1,0,2,0.9,2,2c0,1.8,0.6,3.5,1.9,4.8c1.2,1.3,2.9,2,4.7,2c0,0,0.1,0,0.1,0
					c1.7,0,3.4-0.7,4.7-1.9c1.3-1.2,2-2.9,2-4.7c0-1.1,0.9-2,2-2c0,0,0,0,0,0c1.1,0,2,0.9,2,2c0,2.9-1.2,5.5-3.2,7.5
					C357.1,511.6,354.4,512.7,351.6,512.7z"/>
			</g>
			<g id="XMLID_287_">
				<path id="XMLID_288_" class="st3" d="M384.2,560.1c-11.5,0-21.6-4.4-25.2-11.1c-0.5-1-0.2-2.2,0.8-2.7c1-0.5,2.2-0.2,2.7,0.8
					c3,5.4,12.1,9.2,22.2,9c10.1-0.1,19.1-4,22-9.6c0.5-1,1.7-1.4,2.7-0.9c1,0.5,1.4,1.7,0.9,2.7c-3.5,6.9-13.8,11.6-25.5,11.7
					C384.5,560.1,384.3,560.1,384.2,560.1z"/>
			</g>
			<g id="XMLID_289_">
				
					<ellipse id="XMLID_290_" transform="matrix(0.9953 9.644905e-002 -9.644905e-002 0.9953 52.745 -29.0657)" class="st2" cx="327" cy="531.1" rx="8.3" ry="11"/>
				
					<ellipse id="XMLID_291_" transform="matrix(0.9953 9.645505e-002 -9.645505e-002 0.9953 54.3984 -40.3746)" class="st2" cx="444.8" cy="542.5" rx="8.3" ry="11"/>
			</g>
		</g>
	</g>
	<g id="XMLID_72_">
		<g id="XMLID_81_">
			<path id="XMLID_82_" class="st3" d="M605.8,270.7c-0.7,0-1.4-0.4-1.7-1c-11.3-19.7-30.5-33.7-58.5-42.8c-1-0.3-1.6-1.5-1.3-2.5
				c0.3-1,1.5-1.6,2.5-1.3c29,9.5,48.8,24.1,60.7,44.7c0.6,1,0.2,2.2-0.7,2.7C606.5,270.7,606.1,270.7,605.8,270.7z"/>
		</g>
		<g id="XMLID_77_">
			<path id="XMLID_78_" class="st3" d="M589.2,294.1c-0.7,0-1.4-0.4-1.7-1c-11.3-19.7-30.5-33.7-58.5-42.8c-1-0.3-1.6-1.5-1.3-2.5
				c0.3-1,1.5-1.6,2.5-1.3c29,9.5,48.8,24.1,60.7,44.7c0.6,1,0.2,2.2-0.7,2.7C589.9,294,589.5,294.1,589.2,294.1z"/>
		</g>
	</g>
	<g id="XMLID_57_">
		<g id="XMLID_60_">
			<path id="XMLID_61_" class="st3" d="M287.6,131.4c-0.2,0-0.4,0-0.7-0.1c-1-0.4-1.6-1.5-1.2-2.6C296,100,311.1,80.6,332,69.2
				c1-0.5,2.2-0.2,2.7,0.8c0.5,1,0.2,2.2-0.8,2.7c-20,10.8-34.5,29.6-44.4,57.3C289.2,130.9,288.4,131.4,287.6,131.4z"/>
		</g>
		<g id="XMLID_58_">
			<path id="XMLID_59_" class="st3" d="M310.5,148.6c-0.2,0-0.4,0-0.7-0.1c-1-0.4-1.6-1.5-1.2-2.6c10.2-28.7,25.3-48.2,46.2-59.5
				c1-0.5,2.2-0.2,2.7,0.8c0.5,1,0.2,2.2-0.8,2.7c-20,10.8-34.5,29.6-44.4,57.3C312.1,148.1,311.3,148.6,310.5,148.6z"/>
		</g>
	</g>
</g>
</svg>
